<?xml version="1.0" encoding="UTF-8"?>
<svg xmlns="http://www.w3.org/2000/svg" xmlns:xlink="http://www.w3.org/1999/xlink" width="39px" height="43px" viewBox="0 0 39 43" version="1.1">
<g id="surface1">
<path style="fill-rule:nonzero;fill:rgb(68.235296%,89.019608%,61.56863%);fill-opacity:1;stroke-width:1;stroke-linecap:butt;stroke-linejoin:miter;stroke:rgb(0%,0%,0%);stroke-opacity:1;stroke-miterlimit:4;" d="M 49.418269 52.80714 L 49.715144 52.366461 L 49.258413 52.097475 C 48.059495 51.387809 46.780649 50.849836 45.416166 50.472111 C 44.051683 50.088663 42.635817 49.8998 41.16857 49.8998 C 39.695613 49.8998 38.279748 50.088663 36.915264 50.472111 C 35.55649 50.849836 34.277644 51.387809 33.073017 52.097475 L 32.616286 52.366461 L 32.913161 52.80714 C 33.803786 54.134902 34.974159 55.1994 36.412861 55.994913 C 37.862981 56.801871 39.45012 57.202489 41.16857 57.202489 C 42.88131 57.202489 44.474159 56.801871 45.924279 55.994913 C 47.362981 55.1994 48.527644 54.134902 49.418269 52.80714 Z M 44.833834 13.861374 L 44.833834 13.512264 L 44.508413 13.392078 L 25.508413 6.306868 L 25.33143 6.23819 L 25.160156 6.306868 L 6.160156 13.392078 L 5.834736 13.512264 L 5.834736 28.66706 C 5.834736 31.179506 6.171575 33.686228 6.839543 36.198674 C 7.507512 38.699673 8.449519 41.08621 9.654147 43.352562 C 10.858774 45.618914 12.320312 47.713572 14.033053 49.630814 C 15.711538 51.507994 17.572716 53.08185 19.616587 54.35238 C 20.198918 56.006359 20.963942 57.585938 21.90024 59.091116 C 22.591046 60.195676 23.350361 61.220113 24.178185 62.164426 C 17.532752 60.207122 12.000601 56.206668 7.570312 50.145894 C 2.854567 43.690225 0.502404 36.536337 0.502404 28.66706 L 0.502404 9.797965 L 25.33143 0.532249 L 50.166166 9.797965 L 50.166166 26.583848 C 49.372596 26.269077 48.561899 25.977198 47.734075 25.708212 C 46.786358 25.404887 45.821514 25.17024 44.833834 25.00427 Z M 41.16857 47.747911 C 42.61869 47.747911 43.863281 47.238554 44.885216 46.225563 C 45.901442 45.212573 46.415264 43.970658 46.415264 42.522711 C 46.415264 41.080487 45.901442 39.838572 44.885216 38.825581 C 43.863281 37.812591 42.61869 37.297511 41.16857 37.297511 C 39.71845 37.297511 38.468149 37.812591 37.451923 38.825581 C 36.429988 39.838572 35.916166 41.080487 35.916166 42.522711 C 35.916166 43.970658 36.429988 45.212573 37.451923 46.225563 C 38.468149 47.238554 39.71845 47.747911 41.16857 47.747911 Z M 41.16857 62.502089 C 36.915264 62.502089 33.3128 61.014081 30.315505 58.038063 C 27.323918 55.062046 25.833834 51.473656 25.833834 47.25 C 25.833834 43.026344 27.323918 39.437954 30.315505 36.461937 C 33.3128 33.485919 36.915264 31.997911 41.16857 31.997911 C 45.416166 31.997911 49.024339 33.485919 52.015925 36.461937 C 55.007512 39.437954 56.497596 43.026344 56.497596 47.25 C 56.497596 51.473656 55.007512 55.062046 52.015925 58.038063 C 49.024339 61.014081 45.416166 62.502089 41.16857 62.502089 Z M 41.16857 62.502089 " transform="matrix(0.684211,0,0,0.68254,0,0)"/>
</g>
</svg>
