<?xml version="1.0" encoding="UTF-8"?>
<svg xmlns="http://www.w3.org/2000/svg" xmlns:xlink="http://www.w3.org/1999/xlink" width="40px" height="40px" viewBox="0 0 40 40" version="1.1">
<g id="surface1">
<path style=" stroke:none;fill-rule:nonzero;fill:rgb(34.901962%,48.235294%,56.862748%);fill-opacity:1;" d="M 33.132812 5.390625 L 25.078125 5.390625 L 25.078125 3.023438 C 25.078125 1.507812 23.859375 0.3125 22.34375 0.3125 L 17.65625 0.3125 C 16.140625 0.3125 14.921875 1.507812 14.921875 3.023438 L 14.921875 5.390625 L 6.867188 5.390625 C 6.371094 5.390625 5.9375 5.800781 5.9375 6.300781 L 5.9375 9.871094 C 5.9375 10.367188 6.371094 10.78125 6.867188 10.78125 L 7.8125 10.78125 C 7.808594 10.820312 7.8125 10.863281 7.8125 10.902344 L 7.8125 37 C 7.8125 38.570312 9.082031 39.84375 10.652344 39.84375 L 29.347656 39.84375 C 30.917969 39.84375 32.1875 38.570312 32.1875 37 L 32.1875 10.902344 C 32.1875 10.859375 32.191406 10.820312 32.1875 10.78125 L 33.132812 10.78125 C 33.628906 10.78125 34.0625 10.367188 34.0625 9.871094 L 34.0625 6.300781 C 34.0625 5.800781 33.628906 5.390625 33.132812 5.390625 Z M 17.65625 3.046875 L 22.34375 3.046875 L 22.34375 5.390625 L 17.65625 5.390625 Z M 17.65625 3.046875 "/>
<path style=" stroke:none;fill-rule:nonzero;fill:rgb(16.862746%,23.137255%,27.843139%);fill-opacity:1;" d="M 32.191406 12.9375 L 7.808594 12.9375 L 7.808594 10.902344 L 32.191406 10.902344 Z M 14.324219 35.03125 L 14.324219 16.820312 C 14.324219 16.507812 14.070312 16.257812 13.761719 16.257812 L 12.960938 16.257812 C 12.648438 16.257812 12.398438 16.507812 12.398438 16.820312 L 12.398438 35.03125 C 12.398438 35.339844 12.648438 35.59375 12.960938 35.59375 L 13.761719 35.59375 C 14.070312 35.59375 14.324219 35.339844 14.324219 35.027344 Z M 20.960938 35.03125 L 20.960938 16.820312 C 20.960938 16.507812 20.710938 16.257812 20.398438 16.257812 L 19.601562 16.257812 C 19.289062 16.257812 19.039062 16.507812 19.039062 16.820312 L 19.039062 35.03125 C 19.039062 35.339844 19.289062 35.59375 19.601562 35.59375 L 20.398438 35.59375 C 20.710938 35.59375 20.960938 35.339844 20.960938 35.027344 Z M 27.601562 35.03125 L 27.601562 16.820312 C 27.601562 16.507812 27.351562 16.257812 27.039062 16.257812 L 26.238281 16.257812 C 25.929688 16.257812 25.675781 16.507812 25.675781 16.820312 L 25.675781 35.03125 C 25.675781 35.339844 25.929688 35.59375 26.238281 35.59375 L 27.039062 35.59375 C 27.351562 35.59375 27.601562 35.339844 27.601562 35.027344 Z M 27.601562 35.03125 "/>
</g>
</svg>
