<?xml version="1.0" encoding="UTF-8"?>
<svg xmlns="http://www.w3.org/2000/svg" xmlns:xlink="http://www.w3.org/1999/xlink" width="39px" height="39px" viewBox="0 0 39 39" version="1.1">
<g id="surface1">
<path style="fill-rule:nonzero;fill:rgb(68.235296%,89.019608%,61.56863%);fill-opacity:1;stroke-width:1;stroke-linecap:butt;stroke-linejoin:miter;stroke:rgb(0%,0%,0%);stroke-opacity:1;stroke-miterlimit:4;" d="M 28.814002 7.71875 L 28.5 7.467548 L 28.185998 7.71875 L 6.023137 25.451322 L 5.834736 25.605469 L 5.834736 51.165264 L 22.665264 51.165264 L 22.665264 38.502404 L 34.334736 38.502404 L 34.334736 51.165264 L 51.165264 51.165264 L 51.165264 27.363882 C 51.165264 26.815805 51.045373 26.273438 50.805589 25.776743 L 50.354567 25.99369 L 50.805589 25.776743 C 50.565805 25.280048 50.223257 24.846154 49.789363 24.503606 Z M 53.123498 20.341647 C 54.173978 21.180889 55.024639 22.254207 55.61268 23.470252 C 56.195012 24.680589 56.497596 26.016526 56.497596 27.363882 L 56.497596 50.66857 C 56.497596 52.215745 55.886719 53.70012 54.790565 54.790565 C 53.70012 55.886719 52.215745 56.497596 50.66857 56.497596 L 6.33143 56.497596 C 4.784255 56.497596 3.29988 55.886719 2.209435 54.790565 C 1.113281 53.70012 0.502404 52.215745 0.502404 50.66857 L 0.502404 25.845252 C 0.502404 24.966046 0.696514 24.103966 1.073317 23.316106 C 1.455829 22.528245 2.003906 21.83744 2.689002 21.289363 L 28.5 0.639423 Z M 53.123498 20.341647 " transform="matrix(0.684211,0,0,0.684211,0,0)"/>
</g>
</svg>
