<?xml version="1.0" encoding="UTF-8"?>
<svg xmlns="http://www.w3.org/2000/svg" xmlns:xlink="http://www.w3.org/1999/xlink" width="39px" height="49px" viewBox="0 0 39 48" version="1.1">
<g id="surface1">
<path style="fill-rule:nonzero;fill:rgb(68.235296%,89.019608%,61.56863%);fill-opacity:1;stroke-width:1;stroke-linecap:butt;stroke-linejoin:miter;stroke:rgb(0%,0%,0%);stroke-opacity:1;stroke-miterlimit:4;" d="M 8.341046 24.712484 L 8.238281 24.34847 L 7.125 24.34847 C 5.366587 24.34847 3.682392 23.655111 2.4378 22.41862 C 1.198918 21.176351 0.502404 19.500732 0.502404 17.75 C 0.502404 15.999268 1.198918 14.323649 2.4378 13.08138 C 3.682392 11.844889 5.366587 11.15153 7.125 11.15153 L 7.627404 11.15153 L 7.627404 7.101156 C 7.627404 5.350423 8.323918 3.669027 9.5628 2.432536 C 10.807392 1.196045 12.491587 0.502686 14.25 0.502686 L 42.75 0.502686 C 44.508413 0.502686 46.192608 1.196045 47.4372 2.432536 C 48.676082 3.669027 49.372596 5.350423 49.372596 7.101156 L 49.372596 11.15153 L 49.875 11.15153 C 51.633413 11.15153 53.317608 11.844889 54.5622 13.08138 C 55.801082 14.323649 56.497596 15.999268 56.497596 17.75 C 56.497596 19.500732 55.801082 21.176351 54.5622 22.41862 C 53.317608 23.655111 51.633413 24.34847 49.875 24.34847 L 48.761719 24.34847 L 48.658954 24.712484 C 47.602764 28.416178 45.450421 31.709635 42.481671 34.165283 C 39.512921 36.620931 35.864784 38.12321 32.016827 38.475667 L 31.560096 38.516113 L 31.560096 53.752686 L 35.625 53.752686 C 37.383413 53.752686 39.067608 54.446045 40.3122 55.682536 C 41.551082 56.919027 42.247596 58.600423 42.247596 60.351156 L 42.247596 64.40153 L 46.3125 64.40153 C 47.123197 64.40153 47.905349 64.71932 48.476262 65.291341 C 49.052885 65.863363 49.372596 66.643392 49.372596 67.452311 C 49.372596 68.255452 49.052885 69.035482 48.476262 69.607503 C 47.905349 70.179525 47.123197 70.497314 46.3125 70.497314 L 10.6875 70.497314 C 9.876803 70.497314 9.094651 70.179525 8.523738 69.607503 L 8.175481 69.954183 L 8.523738 69.607503 C 7.947115 69.035482 7.627404 68.255452 7.627404 67.452311 C 7.627404 66.643392 7.947115 65.863363 8.523738 65.291341 C 9.094651 64.71932 9.876803 64.40153 10.6875 64.40153 L 14.752404 64.40153 L 14.752404 60.351156 C 14.752404 58.600423 15.448918 56.919027 16.6878 55.682536 C 17.932392 54.446045 19.616587 53.752686 21.375 53.752686 L 25.439904 53.752686 L 25.439904 38.516113 L 24.983173 38.475667 C 21.135216 38.12321 17.487079 36.620931 14.518329 34.165283 C 11.549579 31.709635 9.397236 28.416178 8.341046 24.712484 Z M 14.25 6.59847 L 13.747596 6.59847 L 13.747596 19.523844 C 13.747596 22.955973 15.117788 26.243652 17.54988 28.664632 C 19.981971 31.09139 23.281851 32.449219 26.71875 32.449219 L 30.28125 32.449219 C 33.718149 32.449219 37.018029 31.09139 39.45012 28.664632 C 41.882212 26.243652 43.252404 22.955973 43.252404 19.523844 L 43.252404 6.59847 Z M 14.25 6.59847 " transform="matrix(0.684211,0,0,0.676056,0,0)"/>
</g>
</svg>
