<?xml version="1.0" encoding="UTF-8"?>
<svg xmlns="http://www.w3.org/2000/svg" xmlns:xlink="http://www.w3.org/1999/xlink" width="39px" height="43px" viewBox="0 0 39 43" version="1.1">
<g id="surface1">
<path style="fill-rule:nonzero;fill:rgb(68.235296%,89.019608%,61.56863%);fill-opacity:1;stroke-width:1;stroke-linecap:butt;stroke-linejoin:miter;stroke:rgb(0%,0%,0%);stroke-opacity:1;stroke-miterlimit:4;" d="M 15.334736 6.301145 L 15.334736 6.799055 L 41.665264 6.799055 L 41.665264 0.497911 L 46.997596 0.497911 L 46.997596 6.799055 L 50.66857 6.799055 C 52.215745 6.799055 53.70012 7.411428 54.790565 8.498819 C 55.886719 9.58621 56.497596 11.062773 56.497596 12.602289 L 56.497596 56.698855 C 56.497596 58.238372 55.886719 59.714935 54.790565 60.802326 C 53.70012 61.889717 52.215745 62.502089 50.66857 62.502089 L 6.33143 62.502089 C 4.784255 62.502089 3.29988 61.889717 2.209435 60.802326 C 1.113281 59.714935 0.502404 58.238372 0.502404 56.698855 L 0.502404 12.602289 C 0.502404 11.062773 1.113281 9.58621 2.209435 8.498819 C 3.29988 7.411428 4.784255 6.799055 6.33143 6.799055 L 10.002404 6.799055 L 10.002404 0.497911 L 15.334736 0.497911 Z M 6.33143 18.3998 L 5.834736 18.3998 L 5.834736 57.202489 L 51.165264 57.202489 L 51.165264 18.3998 Z M 18.497596 28.8502 L 18.497596 34.1498 L 13.165264 34.1498 L 13.165264 28.8502 Z M 25.833834 28.8502 L 31.166166 28.8502 L 31.166166 34.1498 L 25.833834 34.1498 Z M 43.834736 28.8502 L 43.834736 34.1498 L 38.502404 34.1498 L 38.502404 28.8502 Z M 43.834736 41.452489 L 43.834736 46.752089 L 38.502404 46.752089 L 38.502404 41.452489 Z M 25.833834 41.452489 L 31.166166 41.452489 L 31.166166 46.752089 L 25.833834 46.752089 Z M 18.497596 41.452489 L 18.497596 46.752089 L 13.165264 46.752089 L 13.165264 41.452489 Z M 18.497596 41.452489 " transform="matrix(0.684211,0,0,0.68254,0,0)"/>
</g>
</svg>
