<?xml version="1.0" encoding="UTF-8"?>
<svg xmlns="http://www.w3.org/2000/svg" xmlns:xlink="http://www.w3.org/1999/xlink" width="39px" height="39px" viewBox="0 0 39 39" version="1.1">
<g id="surface1">
<path style="fill-rule:nonzero;fill:rgb(68.235296%,89.019608%,61.56863%);fill-opacity:1;stroke-width:1;stroke-linecap:butt;stroke-linejoin:miter;stroke:rgb(0%,0%,0%);stroke-opacity:1;stroke-miterlimit:4;" d="M 28.5 27.997596 C 24.851863 27.997596 21.357873 26.553185 18.777344 23.972656 C 16.196815 21.392127 14.752404 17.898137 14.752404 14.25 C 14.752404 10.601863 16.196815 7.107873 18.777344 4.527344 C 21.357873 1.946815 24.851863 0.502404 28.5 0.502404 C 32.148137 0.502404 35.642127 1.946815 38.222656 4.527344 C 40.803185 7.107873 42.247596 10.601863 42.247596 14.25 C 42.247596 17.898137 40.803185 21.392127 38.222656 23.972656 C 35.642127 26.553185 32.148137 27.997596 28.5 27.997596 Z M 28.5 39.689904 C 39.746995 39.689904 49.686599 41.69381 56.497596 50.274639 L 56.497596 56.497596 L 0.502404 56.497596 L 0.502404 50.274639 C 7.313401 41.69381 17.253005 39.689904 28.5 39.689904 Z M 28.5 39.689904 " transform="matrix(0.684211,0,0,0.684211,0,0)"/>
</g>
</svg>
