<?xml version="1.0" encoding="UTF-8"?>
<svg xmlns="http://www.w3.org/2000/svg" xmlns:xlink="http://www.w3.org/1999/xlink" width="39px" height="39px" viewBox="0 0 39 39" version="1.1">
<g id="surface1">
<path style="fill-rule:nonzero;fill:rgb(68.235296%,89.019608%,61.56863%);fill-opacity:1;stroke-width:1;stroke-linecap:butt;stroke-linejoin:miter;stroke:rgb(0%,0%,0%);stroke-opacity:1;stroke-miterlimit:4;" d="M 27.609375 28.888221 L 27.609375 29.384916 L 51.296575 29.384916 C 51.302284 29.384916 51.307993 29.384916 51.313702 29.396334 C 51.319411 29.402043 51.32512 29.407752 51.32512 29.413462 L 51.32512 31.091947 C 51.330829 34.488882 50.645733 37.857272 49.321214 40.985877 C 48.042368 44.011719 46.209736 46.723558 43.8747 49.058594 C 41.516827 51.422175 38.719351 53.294772 35.636418 54.573618 C 32.553486 55.846755 29.247897 56.503305 25.913762 56.497596 L 25.908053 56.497596 C 22.511118 56.503305 19.148438 55.823918 16.019832 54.499399 L 16.014123 54.499399 C 12.988281 53.220553 10.276442 51.387921 7.941406 49.052885 C 5.60637 46.717849 3.773738 44.0003 2.494892 40.980168 C 1.176082 37.845853 0.502404 34.523137 0.502404 31.091947 C 0.502404 27.655048 1.176082 24.332332 2.494892 21.198017 C 3.768029 18.177885 5.617788 15.4375 7.941406 13.119591 C 10.299279 10.761719 13.096755 8.889123 16.179688 7.610276 C 19.26262 6.337139 22.568209 5.680589 25.902344 5.680589 L 27.592248 5.680589 C 27.592248 5.680589 27.597957 5.680589 27.597957 5.686298 C 27.597957 5.686298 27.603666 5.686298 27.603666 5.686298 C 27.603666 5.692007 27.609375 5.692007 27.609375 5.697716 C 27.609375 5.697716 27.609375 5.697716 27.609375 5.703425 Z M 49.012921 7.975661 C 53.197716 12.13762 55.789663 17.658353 56.332031 23.504507 L 56.497596 25.33143 C 56.497596 25.33143 56.497596 25.33143 56.497596 25.337139 C 56.491887 25.337139 56.486178 25.342849 56.46905 25.348558 L 31.605769 25.411358 C 31.60006 25.411358 31.60006 25.411358 31.60006 25.411358 C 31.594351 25.411358 31.594351 25.405649 31.594351 25.405649 C 31.588642 25.39994 31.588642 25.39994 31.588642 25.39994 C 31.588642 25.394231 31.588642 25.394231 31.588642 25.394231 L 31.588642 0.513822 C 31.588642 0.508113 31.588642 0.508113 31.588642 0.508113 C 31.588642 0.508113 31.588642 0.508113 31.588642 0.502404 C 31.588642 0.502404 31.594351 0.502404 31.594351 0.502404 C 31.60006 0.502404 31.60006 0.502404 31.605769 0.502404 L 33.438401 0.667969 C 39.324519 1.216046 44.833834 3.796575 49.012921 7.975661 Z M 49.012921 7.975661 " transform="matrix(0.684211,0,0,0.684211,0,0)"/>
</g>
</svg>
